<svg width="16" height="16" viewBox="0 0 16 16" fill="none" xmlns="http://www.w3.org/2000/svg">
<g clip-path="url(#clip0_1397_37602)">
<path d="M8.39612 1.09375C4.25237 1.09375 0.896118 4.39375 0.896118 8.46375C0.896118 11.7206 3.04487 14.4825 6.02424 15.4562C6.39924 15.5256 6.53674 15.2975 6.53674 15.1019C6.53674 14.9269 6.53049 14.4631 6.52737 13.8487C4.44112 14.2931 4.00112 12.86 4.00112 12.86C3.65987 12.0094 3.16674 11.7819 3.16674 11.7819C2.48737 11.325 3.21924 11.3344 3.21924 11.3344C3.97237 11.3856 4.36799 12.0937 4.36799 12.0937C5.03674 13.2206 6.12362 12.895 6.55237 12.7069C6.61987 12.23 6.81299 11.9056 7.02737 11.7212C5.36174 11.5369 3.61112 10.9031 3.61112 8.07937C3.61112 7.275 3.90174 6.6175 4.38299 6.10187C4.29862 5.91562 4.04549 5.16625 4.44862 4.15125C4.44862 4.15125 5.07674 3.95375 6.51112 4.90687C7.11112 4.74312 7.74862 4.66187 8.38612 4.65812C9.02362 4.66187 9.66112 4.74312 10.2611 4.90687C11.6861 3.95375 12.3142 4.15125 12.3142 4.15125C12.7174 5.16625 12.4642 5.91562 12.3892 6.10187C12.8674 6.6175 13.158 7.275 13.158 8.07937C13.158 10.9106 11.4049 11.5337 9.73612 11.715C9.99862 11.9362 10.2424 12.3881 10.2424 13.0787C10.2424 14.065 10.233 14.8575 10.233 15.0969C10.233 15.29 10.3642 15.5206 10.7486 15.4469C13.7492 14.4794 15.8961 11.7156 15.8961 8.46375C15.8961 4.39375 12.538 1.09375 8.39612 1.09375Z" fill="#7EF9FF"/>
</g>
<defs>
<clipPath id="clip0_1397_37602">
<rect width="15" height="15" fill="white" transform="translate(0.896118 0.78125)"/>
</clipPath>
</defs>
</svg>
