<svg width="16" height="16" viewBox="0 0 16 16" fill="none" xmlns="http://www.w3.org/2000/svg">
<path fill-rule="evenodd" clip-rule="evenodd" d="M5.20167 2.17753C3.59084 2.17753 2.28501 3.49031 2.28501 5.1097V11.4528C2.28501 13.0722 3.59084 14.385 5.20167 14.385H11.5906C13.2014 14.385 14.5072 13.0722 14.5072 11.4528V5.1097C14.5072 3.49031 13.2014 2.17753 11.5906 2.17753H5.20167ZM0.896118 5.1097C0.896118 2.71916 2.82378 0.78125 5.20167 0.78125H11.5906C13.9685 0.78125 15.8961 2.71916 15.8961 5.1097V11.4528C15.8961 13.8433 13.9685 15.7812 11.5906 15.7812H5.20167C2.82378 15.7812 0.896118 13.8433 0.896118 11.4528V5.1097Z" fill="#7EF9FF"/>
<path fill-rule="evenodd" clip-rule="evenodd" d="M4.46777 8.34099C4.46777 6.14874 6.23556 4.37158 8.4162 4.37158C10.5968 4.37158 12.3646 6.14874 12.3646 8.34099C12.3646 10.5332 10.5968 12.3104 8.4162 12.3104C6.23555 12.3104 4.46777 10.5332 4.46777 8.34099ZM8.4162 5.76786C7.00261 5.76786 5.85666 6.91989 5.85666 8.34099C5.85666 9.76209 7.00261 10.9141 8.4162 10.9141C9.82977 10.9141 10.9757 9.76209 10.9757 8.34099C10.9757 6.91989 9.82978 5.76786 8.4162 5.76786Z" fill="#7EF9FF"/>
<path fill-rule="evenodd" clip-rule="evenodd" d="M12.4042 5.22935C12.9301 5.22935 13.3565 4.80068 13.3565 4.2719C13.3565 3.74312 12.9301 3.31445 12.4042 3.31445C11.8782 3.31445 11.4518 3.74312 11.4518 4.2719C11.4518 4.80068 11.8782 5.22935 12.4042 5.22935Z" fill="#7EF9FF"/>
</svg>
