<svg width="16" height="16" viewBox="0 0 16 16" fill="none" xmlns="http://www.w3.org/2000/svg">
<path fill-rule="evenodd" clip-rule="evenodd" d="M4.28442 0.78125H12.5095C13.4071 0.783839 14.2673 1.14322 14.902 1.78089C15.5367 2.41857 15.8944 3.28269 15.897 4.18449V12.3792C15.8941 13.2808 15.5362 14.1446 14.9015 14.782C14.2669 15.4194 13.4069 15.7787 12.5095 15.7812H4.28442C3.38702 15.7787 2.52709 15.4194 1.89241 14.782C1.25773 14.1446 0.899871 13.2808 0.896973 12.3792V4.18449C0.899549 3.28269 1.25727 2.41857 1.89198 1.78089C2.52669 1.14322 3.38681 0.783839 4.28442 0.78125Z" fill="#7EF9FF"/>
<path fill-rule="evenodd" clip-rule="evenodd" d="M6.90161 6.59571H8.79736V7.57682H8.82422C9.08911 7.10098 9.73364 6.59571 10.6968 6.59571C12.6975 6.59571 13.0674 7.84663 13.0674 9.47405V12.9153H11.0911V9.85668C11.0911 9.15641 11.0764 8.25502 10.0632 8.25502C9.05005 8.25502 8.87671 9.0166 8.87671 9.8064V12.9214H6.90161V6.59571ZM5.77979 4.68008C5.77979 4.88432 5.7195 5.08396 5.60656 5.25378C5.49363 5.42359 5.3331 5.55594 5.14529 5.6341C4.95748 5.71226 4.75081 5.73271 4.55143 5.69286C4.35205 5.65302 4.16891 5.55467 4.02517 5.41026C3.88142 5.26584 3.78353 5.08185 3.74387 4.88154C3.70421 4.68123 3.72457 4.4736 3.80236 4.28492C3.88015 4.09623 4.01189 3.93496 4.18092 3.82149C4.34995 3.70802 4.54867 3.64746 4.75195 3.64746C5.02445 3.64779 5.2857 3.75668 5.47838 3.95027C5.67107 4.14385 5.77946 4.40631 5.77979 4.68008ZM3.72656 6.59571H5.77979V12.9153H3.72656V6.59571Z" fill="#05081D"/>
</svg>
