<svg width="26" height="26" viewBox="0 0 26 26" fill="none" xmlns="http://www.w3.org/2000/svg">
<g clipPath="url(#clip0_199_243)">
<path d="M13.2251 25.7324C20.1287 25.7324 25.7251 20.136 25.7251 13.2324C25.7251 6.32886 20.1287 0.732422 13.2251 0.732422C6.32154 0.732422 0.725098 6.32886 0.725098 13.2324C0.725098 20.136 6.32154 25.7324 13.2251 25.7324Z" fill="#039BE5"/>
<path d="M6.4448 12.9616L18.4969 8.31469C19.0563 8.1126 19.5448 8.45114 19.3635 9.29698L19.3646 9.29594L17.3125 18.9636C17.1604 19.6491 16.7531 19.8157 16.1833 19.4928L13.0583 17.1897L11.551 18.6418C11.3844 18.8084 11.2438 18.9491 10.9208 18.9491L11.1427 15.7689L16.9344 10.5366C17.1865 10.3147 16.8781 10.1897 16.5458 10.4105L9.38855 14.9168L6.30313 13.9543C5.63334 13.7418 5.61875 13.2845 6.4448 12.9616Z" fill="white"/>
</g>
<defs>
<clipPath id="clip0_199_243">
<rect width="25" height="25" fill="white" transform="translate(0.725098 0.732422)"/>
</clipPath>
</defs>
</svg>
